/* XPM */
static const char *south_xpm[] = {
/* columns rows colors chars-per-pixel */
"60 60 3 1",
"  c None",
". c #FF8C00",
"x c #FFA500",
"xxxxxxxxxxxxxxxxxxxxxxxxxxxxxxxxxxxxxxxxxxxxxxxxxxxxxxxxxxxx",
"x..........................................................x",
"x..........................................................x",
"x..........................................................x",
"x..........................................................x",
"x..........................................................x",
"x..........................................................x",
"x..........................................................x",
"x..........................................................x",
"x..........................................................x",
"x..........................................................x",
"x..........................................................x",
"x..........................................................x",
"x..........................................................x",
"x..........................................................x",
"x..........................................................x",
"x..........................................................x",
"x..........................................................x",
"x..........................................................x",
"x..........................................................x",
"x..........................................................x",
"x..........................................................x",
"x..........................................................x",
"x..........................................................x",
"x..........................................................x",
"x..........................................................x",
"x..........................................................x",
"x..........................................................x",
"x..........................................................x",
"x..........................................................x",
"x..........................................................x",
"x..........................................................x",
"x..........................................................x",
"x..........................................................x",
"x..........................................................x",
"x..........................................................x",
"x..........................................................x",
"x..........................................................x",
"x..........................................................x",
"x..........................................................x",
"x..........................................................x",
"x..........................................................x",
"x..........................................................x",
"x..........................................................x",
"x..........................................................x",
"x..........................................................x",
"x..........................................................x",
"x..........................................................x",
"x..........................................................x",
"x..........................................................x",
"x..........................................................x",
"x..........................................................x",
"x..........................................................x",
"x..........................................................x",
"x..........................................................x",
"x..........................................................x",
"x..........................................................x".
"x..........................................................x".
"x..........................................................x".
"xxxxxxxxxxxxxxxxxxxxxxxxxxxxxxxxxxxxxxxxxxxxxxxxxxxxxxxxxxxx",
};
