/* XPM */
static const char *west_xpm[] = {
/* columns rows colors chars-per-pixel */
"60 60 3 1",
"  c None",
". c #9400D3",
"x c #BA55D3",
"xxxxxxxxxxxxxxxxxxxxxxxxxxxxxxxxxxxxxxxxxxxxxxxxxxxxxxxxxxxx",
"x..........................................................x",
"x..........................................................x",
"x..........................................................x",
"x..........................................................x",
"x..........................................................x",
"x..........................................................x",
"x..........................................................x",
"x..........................................................x",
"x..........................................................x",
"x..........................................................x",
"x..........................................................x",
"x..........................................................x",
"x..........................................................x",
"x..........................................................x",
"x..........................................................x",
"x..........................................................x",
"x..........................................................x",
"x..........................................................x",
"x..........................................................x",
"x..........................................................x",
"x..........................................................x",
"x..........................................................x",
"x..........................................................x",
"x..........................................................x",
"x..........................................................x",
"x..........................................................x",
"x..........................................................x",
"x..........................................................x",
"x..........................................................x",
"x..........................................................x",
"x..........................................................x",
"x..........................................................x",
"x..........................................................x",
"x..........................................................x",
"x..........................................................x",
"x..........................................................x",
"x..........................................................x",
"x..........................................................x",
"x..........................................................x",
"x..........................................................x",
"x..........................................................x",
"x..........................................................x",
"x..........................................................x",
"x..........................................................x",
"x..........................................................x",
"x..........................................................x",
"x..........................................................x",
"x..........................................................x",
"x..........................................................x",
"x..........................................................x",
"x..........................................................x",
"x..........................................................x",
"x..........................................................x",
"x..........................................................x",
"x..........................................................x",
"x..........................................................x".
"x..........................................................x".
"x..........................................................x".
"xxxxxxxxxxxxxxxxxxxxxxxxxxxxxxxxxxxxxxxxxxxxxxxxxxxxxxxxxxxx",
};
